<svg width="31" height="31" viewBox="0 0 31 31" fill="none" xmlns="http://www.w3.org/2000/svg">
<path d="M15.5 1.625C23.163 1.625 29.375 7.83705 29.375 15.5C29.375 23.163 23.163 29.375 15.5 29.375C7.83705 29.375 1.625 23.163 1.625 15.5C1.625 7.83705 7.83705 1.625 15.5 1.625Z" fill="white"/>
<path d="M15.9881 22.2833C16.5184 22.9197 17.4643 23.0057 18.1007 22.4754C18.7371 21.945 18.8231 20.9992 18.2927 20.3628L15.9881 22.2833ZM12.0304 15.191L10.8781 14.2308C10.4145 14.787 10.4145 15.5951 10.8781 16.1513L12.0304 15.191ZM18.2927 10.0193C18.8231 9.38292 18.7371 8.43707 18.1007 7.90673C17.4643 7.37638 16.5184 7.46237 15.9881 8.09878L18.2927 10.0193ZM18.2927 20.3628L13.1827 14.2308L10.8781 16.1513L15.9881 22.2833L18.2927 20.3628ZM13.1827 16.1513L18.2927 10.0193L15.9881 8.09878L10.8781 14.2308L13.1827 16.1513ZM15.5 3.125C22.3345 3.125 27.875 8.66548 27.875 15.5H30.875C30.875 7.00862 23.9914 0.125 15.5 0.125V3.125ZM27.875 15.5C27.875 22.3345 22.3345 27.875 15.5 27.875V30.875C23.9914 30.875 30.875 23.9914 30.875 15.5H27.875ZM15.5 27.875C8.66548 27.875 3.125 22.3345 3.125 15.5H0.125C0.125 23.9914 7.00862 30.875 15.5 30.875V27.875ZM3.125 15.5C3.125 8.66548 8.66547 3.125 15.5 3.125V0.125C7.00862 0.125 0.125 7.00862 0.125 15.5H3.125Z" fill="#31418B"/>
</svg>
