<svg width="37" height="37" viewBox="0 0 37 37" fill="none" xmlns="http://www.w3.org/2000/svg">
<g id="arrow-left-round">
<g id="Icon">
<path d="M18.5 32.375C10.837 32.375 4.625 26.163 4.625 18.5C4.625 10.837 10.837 4.625 18.5 4.625C26.163 4.625 32.375 10.837 32.375 18.5C32.375 26.163 26.163 32.375 18.5 32.375Z" fill="white"/>
<path d="M18.0119 11.7167C17.4816 11.0803 16.5357 10.9943 15.8993 11.5246C15.2629 12.055 15.1769 13.0008 15.7073 13.6372L18.0119 11.7167ZM21.9696 18.809L23.1219 19.7692C23.5855 19.213 23.5855 18.4049 23.1219 17.8487L21.9696 18.809ZM15.7073 23.9807C15.1769 24.6171 15.2629 25.5629 15.8993 26.0933C16.5357 26.6236 17.4816 26.5376 18.0119 25.9012L15.7073 23.9807ZM15.7073 13.6372L20.8173 19.7692L23.1219 17.8487L18.0119 11.7167L15.7073 13.6372ZM20.8173 17.8487L15.7073 23.9807L18.0119 25.9012L23.1219 19.7692L20.8173 17.8487ZM18.5 30.875C11.6655 30.875 6.125 25.3345 6.125 18.5H3.125C3.125 26.9914 10.0086 33.875 18.5 33.875V30.875ZM6.125 18.5C6.125 11.6655 11.6655 6.125 18.5 6.125V3.125C10.0086 3.125 3.125 10.0086 3.125 18.5H6.125ZM18.5 6.125C25.3345 6.125 30.875 11.6655 30.875 18.5H33.875C33.875 10.0086 26.9914 3.125 18.5 3.125V6.125ZM30.875 18.5C30.875 25.3345 25.3345 30.875 18.5 30.875V33.875C26.9914 33.875 33.875 26.9914 33.875 18.5H30.875Z" fill="#31418B"/>
</g>
</g>
</svg>
