<svg width="26" height="26" viewBox="0 0 26 26" fill="none" xmlns="http://www.w3.org/2000/svg">
<g id="cart">
<g id="Group">
<path id="Vector" d="M25.0712 0.928558H20.4284L18.8127 16.9928C18.7455 17.4357 18.5206 17.8393 18.1793 18.1294C17.838 18.4195 17.4034 18.5765 16.9555 18.5714H5.25552C4.85054 18.5926 4.44977 18.4806 4.11442 18.2525C3.77908 18.0245 3.52759 17.693 3.39837 17.3086L0.928373 9.87999C0.83628 9.6007 0.811829 9.30354 0.857031 9.01295C0.902232 8.72237 1.0158 8.44667 1.18837 8.20856C1.36816 7.95539 1.60856 7.75134 1.88757 7.61508C2.16659 7.47882 2.47531 7.41469 2.78552 7.42856H19.7784" stroke="#31418B" stroke-linecap="round" stroke-linejoin="round"/>
<path id="Vector_2" d="M5.57115 25.0714C6.08399 25.0714 6.49972 24.6557 6.49972 24.1428C6.49972 23.63 6.08399 23.2143 5.57115 23.2143C5.05831 23.2143 4.64258 23.63 4.64258 24.1428C4.64258 24.6557 5.05831 25.0714 5.57115 25.0714Z" fill="#31418B" stroke="#31418B" stroke-linecap="round" stroke-linejoin="round"/>
<path id="Vector_3" d="M17.6424 25.0714C18.1553 25.0714 18.571 24.6557 18.571 24.1428C18.571 23.63 18.1553 23.2143 17.6424 23.2143C17.1296 23.2143 16.7139 23.63 16.7139 24.1428C16.7139 24.6557 17.1296 25.0714 17.6424 25.0714Z" fill="#31418B" stroke="#31418B" stroke-linecap="round" stroke-linejoin="round"/>
</g>
</g>
</svg>
