<svg width="28" height="20" viewBox="0 0 28 20" fill="none" xmlns="http://www.w3.org/2000/svg">
<g id="delivery">
<path id="Icon" d="M17.75 14.75H8.66554M17.75 14.75V5.375M17.75 14.75H19.3345M4.33446 14.75H2.5C1.94771 14.75 1.5 14.3023 1.5 13.75V2C1.5 1.44772 1.94772 1 2.5 1H16.75C17.3023 1 17.75 1.44772 17.75 2V5.375M17.75 5.375H22.75L26.5 9.75V14.75H23.6655M9 16C9 17.3807 7.88071 18.5 6.5 18.5C5.11929 18.5 4 17.3807 4 16C4 14.6193 5.11929 13.5 6.5 13.5C7.88071 13.5 9 14.6193 9 16ZM24 16C24 17.3807 22.8807 18.5 21.5 18.5C20.1193 18.5 19 17.3807 19 16C19 14.6193 20.1193 13.5 21.5 13.5C22.8807 13.5 24 14.6193 24 16Z" stroke="#0A218A" stroke-width="2" stroke-linecap="round" stroke-linejoin="round"/>
</g>
</svg>
