<svg width="21" height="20" viewBox="0 0 21 20" fill="none" xmlns="http://www.w3.org/2000/svg">
<g id="Line Rounded/Email">
<g id="Email">
<path id="Vector" d="M18.4552 5.94946V14.2828C18.4552 14.8353 18.2357 15.3652 17.845 15.7559C17.4543 16.1466 16.9244 16.3661 16.3719 16.3661H3.87191C3.31937 16.3661 2.78947 16.1466 2.39877 15.7559C2.00807 15.3652 1.78857 14.8353 1.78857 14.2828V5.94946" stroke="#0A218A" stroke-width="1.4" stroke-linecap="round" stroke-linejoin="round"/>
<path id="Vector_2" d="M18.4552 5.94954C18.4552 5.39701 18.2357 4.86711 17.845 4.47641C17.4543 4.0857 16.9244 3.86621 16.3719 3.86621H3.87191C3.31937 3.86621 2.78947 4.0857 2.39877 4.47641C2.00807 4.86711 1.78857 5.39701 1.78857 5.94954L9.01774 10.4634C9.34885 10.6704 9.73145 10.7801 10.1219 10.7801C10.5124 10.7801 10.895 10.6704 11.2261 10.4634L18.4552 5.94954Z" stroke="#0A218A" stroke-width="1.4" stroke-linecap="round" stroke-linejoin="round"/>
</g>
</g>
</svg>
