<svg width="21" height="20" viewBox="0 0 21 20" fill="none" xmlns="http://www.w3.org/2000/svg">
<g id="Line Rounded/Mark">
<g id="Mark">
<path id="Vector" d="M16.9828 8.95631C16.9828 14.3351 11.4736 17.6489 10.3287 18.2801C10.2652 18.3151 10.194 18.3334 10.1216 18.3334C10.0491 18.3334 9.97788 18.3151 9.91445 18.2801C8.76871 17.6489 3.26123 14.3351 3.26123 8.95631C3.26123 4.66833 5.83402 1.66675 10.122 1.66675C14.41 1.66675 16.9828 4.66833 16.9828 8.95631Z" stroke="#0A218A" stroke-width="1.4" stroke-linecap="round" stroke-linejoin="round"/>
<path id="Vector_2" d="M6.69141 8.52755C6.69141 9.43734 7.05282 10.3099 7.69614 10.9532C8.33946 11.5965 9.21199 11.9579 10.1218 11.9579C11.0316 11.9579 11.9041 11.5965 12.5474 10.9532C13.1908 10.3099 13.5522 9.43734 13.5522 8.52755C13.5522 7.61775 13.1908 6.74522 12.5474 6.1019C11.9041 5.45858 11.0316 5.09717 10.1218 5.09717C9.21199 5.09717 8.33946 5.45858 7.69614 6.1019C7.05282 6.74522 6.69141 7.61775 6.69141 8.52755V8.52755Z" stroke="#0A218A" stroke-width="1.4" stroke-linecap="round" stroke-linejoin="round"/>
</g>
</g>
</svg>
