<svg width="30" height="30" viewBox="0 0 30 30" fill="none" xmlns="http://www.w3.org/2000/svg">
<g id="phone-call">
<path id="Icon" d="M26.2502 13.7499C26.2502 8.22708 21.773 3.74992 16.2502 3.74992M17.5 8.90741C19.2571 9.35959 20.6404 10.7429 21.0927 12.5M19.975 17.95L20.2485 17.5853C20.8285 16.8121 21.8784 16.5642 22.7429 16.9965L24.8837 18.0668C25.6904 18.4702 26.1273 19.3635 25.9504 20.2479L25.3216 23.3922C25.1346 24.3271 24.3113 25.0118 23.3618 24.9258C13.9719 24.0755 5.92446 16.0281 5.07418 6.63815C4.9882 5.68868 5.67292 4.86542 6.60777 4.67845L9.75207 4.04959C10.6365 3.87271 11.5298 4.30963 11.9332 5.11632L13.0035 7.25706C13.4358 8.12159 13.1879 9.17155 12.4147 9.75149L12.05 10.025C11.5464 10.4027 11.2358 11.0069 11.4589 11.5956C12.3646 13.9857 16.0143 17.6354 18.4044 18.5411C18.9931 18.7642 19.5973 18.4536 19.975 17.95Z" stroke="#0A218A" stroke-width="2" stroke-linecap="round" stroke-linejoin="round"/>
</g>
</svg>
