<svg width="21" height="20" viewBox="0 0 21 20" fill="none" xmlns="http://www.w3.org/2000/svg">
<g id="Line Rounded/Phone">
<g id="Phone">
<path id="Vector" d="M12.3735 17.3851L12.3826 17.3915C13.1696 17.8926 14.1041 18.1102 15.0316 18.0084C15.959 17.9065 16.824 17.4913 17.4835 16.8313L18.0565 16.2584C18.1834 16.1315 18.2842 15.9808 18.3529 15.815C18.4216 15.6492 18.457 15.4714 18.457 15.2919C18.457 15.1124 18.4216 14.9347 18.3529 14.7688C18.2842 14.603 18.1834 14.4524 18.0565 14.3255L15.6399 11.9107C15.513 11.7838 15.3624 11.683 15.1965 11.6143C15.0307 11.5456 14.853 11.5102 14.6735 11.5102C14.494 11.5102 14.3162 11.5456 14.1504 11.6143C13.9846 11.683 13.8339 11.7838 13.707 11.9107C13.4508 12.1669 13.1033 12.3108 12.741 12.3108C12.3787 12.3108 12.0313 12.1669 11.775 11.9107L7.91108 8.04586C7.65494 7.78963 7.51104 7.44217 7.51104 7.07987C7.51104 6.71757 7.65494 6.3701 7.91108 6.11388C8.03805 5.987 8.13877 5.83633 8.20749 5.67051C8.27621 5.50468 8.31158 5.32694 8.31158 5.14744C8.31158 4.96794 8.27621 4.79019 8.20749 4.62437C8.13877 4.45854 8.03805 4.30788 7.91108 4.18099L5.49543 1.76625C5.23921 1.51011 4.89174 1.36621 4.52944 1.36621C4.16714 1.36621 3.81968 1.51011 3.56345 1.76625L2.9896 2.33919C2.32975 2.99883 1.91469 3.86385 1.813 4.79131C1.71131 5.71878 1.92908 6.65318 2.43032 7.44012L2.43578 7.44923C5.08297 11.3658 8.45641 14.7386 12.3735 17.3851V17.3851Z" stroke="#0A218A" stroke-width="1.4" stroke-linecap="round" stroke-linejoin="round"/>
</g>
</g>
</svg>
